<?xml version="1.0" encoding="UTF-8"?>
<svg width="43px" height="43px" viewBox="0 0 43 43" version="1.1" xmlns="http://www.w3.org/2000/svg" xmlns:xlink="http://www.w3.org/1999/xlink">
    <!-- Generator: Sketch 48.2 (47327) - http://www.bohemiancoding.com/sketch -->
    <title>Group 2</title>
    <desc>Created with Sketch.</desc>
    <defs></defs>
    <g id="Sign-In-2-Copy-30" stroke="none" stroke-width="1" fill="none" fill-rule="evenodd" transform="translate(-257.000000, -639.000000)">
        <g id="Group-Copy" transform="translate(189.000000, 575.000000)">
            <g id="Group-2" transform="translate(68.000000, 64.000000)">
                <circle id="Oval-2-Copy" fill-opacity="0.7" fill="#000000" cx="21.5" cy="21.5" r="21.5"></circle>
                <path d="M11.6159207,16.147894 L27.3709286,12.7544463 C27.9756201,12.6242027 28.5714026,13.0088186 28.7016462,13.6135101 C28.7351265,13.7689515 28.7351253,13.9297402 28.7016425,14.0851811 L25.3080646,29.8395849 C25.1778115,30.4442743 24.5820228,30.8288809 23.9773335,30.6986277 C23.7666874,30.6532535 23.5736018,30.5480782 23.4212332,30.3957155 L11.0598032,18.0347595 C10.6224076,17.5973807 10.622394,16.8882359 11.0597728,16.4508403 C11.2121501,16.2984572 11.4052538,16.1932693 11.6159207,16.147894 Z" id="Rectangle-2-Copy" fill="#FFFFFF" transform="translate(19.727922, 21.727922) rotate(45.000000) translate(-19.727922, -21.727922) "></path>
            </g>
        </g>
    </g>
</svg>