<?xml version="1.0" encoding="UTF-8"?>
<svg width="30px" height="30px" viewBox="0 0 30 30" version="1.1" xmlns="http://www.w3.org/2000/svg" xmlns:xlink="http://www.w3.org/1999/xlink">
    <!-- Generator: Sketch 48.2 (47327) - http://www.bohemiancoding.com/sketch -->
    <title>Group 3 Copy</title>
    <desc>Created with Sketch.</desc>
    <defs></defs>
    <g id="Sign-In-2-Copy-20" stroke="none" stroke-width="1" fill="none" fill-rule="evenodd" transform="translate(-326.000000, -392.000000)" opacity="0.5">
        <g id="Group" transform="translate(8.000000, 72.000000)" fill="#FFFFFF">
            <g id="Group-3-Copy" transform="translate(318.000000, 320.000000)">
                <path d="M15,30 C6.71572875,30 0,23.2842712 0,15 C0,6.71572875 6.71572875,0 15,0 C23.2842712,0 30,6.71572875 30,15 C30,23.2842712 23.2842712,30 15,30 Z M14.0977225,10.2860196 C13.9243818,10.1555514 13.7133125,10.0849949 13.4963586,10.0849949 C12.9440739,10.0849949 12.4963586,10.5327101 12.4963586,11.0849949 L12.4963586,19.2491079 C12.4963586,19.4660618 12.5669152,19.677131 12.6973834,19.8504718 C13.0295075,20.2917337 13.6564607,20.3802073 14.0977225,20.0480832 L19.5211646,15.9660267 C19.5959599,15.9097305 19.6624798,15.8432106 19.718776,15.7684153 C20.0509001,15.3271534 19.9624264,14.7002002 19.5211646,14.3680761 L14.0977225,10.2860196 Z" id="Combined-Shape"></path>
            </g>
        </g>
    </g>
</svg>